<svg width="95" height="31" viewBox="0 0 95 31" fill="none" xmlns="http://www.w3.org/2000/svg">
<path d="M14.1245 19.4717C14.1245 18.5033 13.7827 17.7627 13.0991 17.25C12.4155 16.7259 11.1851 16.179 9.40771 15.6094C7.63037 15.0283 6.22331 14.4587 5.18652 13.9004C2.361 12.3737 0.948242 10.3172 0.948242 7.73096C0.948242 6.38656 1.32422 5.19027 2.07617 4.14209C2.83952 3.08252 3.92757 2.25651 5.34033 1.66406C6.76449 1.07161 8.35954 0.775391 10.1255 0.775391C11.9028 0.775391 13.4865 1.1001 14.8765 1.74951C16.2664 2.38753 17.3431 3.29329 18.1064 4.4668C18.8812 5.6403 19.2686 6.97331 19.2686 8.46582H14.1416C14.1416 7.3265 13.7827 6.44352 13.0649 5.81689C12.3472 5.17887 11.3389 4.85986 10.04 4.85986C8.78678 4.85986 7.81266 5.1276 7.11768 5.66309C6.42269 6.18717 6.0752 6.88216 6.0752 7.74805C6.0752 8.55697 6.47965 9.23486 7.28857 9.78174C8.10889 10.3286 9.31087 10.8413 10.8945 11.3198C13.8112 12.1971 15.936 13.2852 17.269 14.584C18.6021 15.8828 19.2686 17.5007 19.2686 19.4375C19.2686 21.5908 18.4539 23.2827 16.8247 24.5132C15.1955 25.7323 13.0023 26.3418 10.2451 26.3418C8.33105 26.3418 6.58789 25.9943 5.01562 25.2993C3.44336 24.5929 2.24137 23.6302 1.40967 22.4111C0.589355 21.1921 0.179199 19.7793 0.179199 18.1729H5.32324C5.32324 20.9186 6.96387 22.2915 10.2451 22.2915C11.4642 22.2915 12.4155 22.0465 13.0991 21.5566C13.7827 21.0553 14.1245 20.3604 14.1245 19.4717ZM43.1602 14.1226C43.1602 16.4468 42.7842 18.4691 42.0322 20.1895C41.2803 21.8984 40.2378 23.2713 38.9048 24.3081L43.0405 27.5552L39.7764 30.4434L34.4785 26.188C33.8747 26.2905 33.248 26.3418 32.5986 26.3418C30.5365 26.3418 28.6965 25.8462 27.0786 24.855C25.4608 23.8638 24.2075 22.451 23.3188 20.6167C22.4302 18.771 21.9801 16.6519 21.9688 14.2593V13.0288C21.9688 10.5793 22.4074 8.42594 23.2847 6.56885C24.1733 4.70036 25.4209 3.27051 27.0273 2.2793C28.6452 1.27669 30.4909 0.775391 32.5645 0.775391C34.638 0.775391 36.478 1.27669 38.0845 2.2793C39.7023 3.27051 40.9499 4.70036 41.8271 6.56885C42.7158 8.42594 43.1602 10.5736 43.1602 13.0117V14.1226ZM37.9648 12.9946C37.9648 10.3856 37.4977 8.40316 36.5635 7.04736C35.6292 5.69157 34.2962 5.01367 32.5645 5.01367C30.8441 5.01367 29.5168 5.68587 28.5825 7.03027C27.6483 8.36328 27.1755 10.3229 27.1641 12.9092V14.1226C27.1641 16.6632 27.6312 18.6343 28.5654 20.0356C29.4997 21.437 30.8441 22.1377 32.5986 22.1377C34.319 22.1377 35.6406 21.4655 36.5635 20.1211C37.4863 18.7653 37.9535 16.7943 37.9648 14.208V12.9946ZM64.8472 16.8911H60.7627V26H55.6357V1.11719H64.8813C67.8208 1.11719 70.0881 1.7723 71.6831 3.08252C73.2782 4.39274 74.0757 6.24414 74.0757 8.63672C74.0757 10.3343 73.7054 11.7528 72.9648 12.8921C72.2357 14.02 71.1248 14.9201 69.6323 15.5923L75.0156 25.7607V26H69.5127L64.8472 16.8911ZM60.7627 12.7383H64.8984C66.1859 12.7383 67.1828 12.4136 67.8892 11.7642C68.5955 11.1034 68.9487 10.1976 68.9487 9.04688C68.9487 7.87337 68.6126 6.95052 67.9404 6.27832C67.2796 5.60612 66.2599 5.27002 64.8813 5.27002H60.7627V12.7383ZM82.4839 11.3711H85.1157C86.369 11.3711 87.2975 11.0578 87.9014 10.4312C88.5052 9.80452 88.8071 8.97282 88.8071 7.93604C88.8071 6.93343 88.5052 6.15299 87.9014 5.59473C87.3089 5.03646 86.4886 4.75732 85.4404 4.75732C84.4948 4.75732 83.703 5.01937 83.0649 5.54346C82.4269 6.05615 82.1079 6.72835 82.1079 7.56006H77.1689C77.1689 6.26123 77.5164 5.09912 78.2114 4.07373C78.9178 3.03695 79.8976 2.22803 81.1509 1.64697C82.4155 1.06592 83.8055 0.775391 85.3208 0.775391C87.9526 0.775391 90.0148 1.40771 91.5073 2.67236C92.9998 3.92562 93.7461 5.65739 93.7461 7.86768C93.7461 9.007 93.3986 10.0552 92.7036 11.0122C92.0086 11.9692 91.0972 12.7041 89.9692 13.2168C91.3706 13.7181 92.4131 14.4701 93.0967 15.4727C93.7917 16.4753 94.1392 17.6602 94.1392 19.0273C94.1392 21.2376 93.3302 23.0093 91.7124 24.3423C90.106 25.6753 87.9754 26.3418 85.3208 26.3418C82.8371 26.3418 80.8034 25.6867 79.2197 24.3765C77.6475 23.0662 76.8613 21.3345 76.8613 19.1812H81.8003C81.8003 20.1154 82.1478 20.8787 82.8428 21.4712C83.5492 22.0636 84.415 22.3599 85.4404 22.3599C86.6139 22.3599 87.5311 22.0522 88.1919 21.437C88.8641 20.8104 89.2002 19.9844 89.2002 18.959C89.2002 16.4753 87.833 15.2334 85.0986 15.2334H82.4839V11.3711Z" fill="white"/>
</svg>
