<svg width="68" height="23" viewBox="0 0 68 23" fill="none" xmlns="http://www.w3.org/2000/svg">
<path d="M10.8032 14.3369C10.8032 13.6452 10.5591 13.1162 10.0708 12.75C9.58252 12.3757 8.70361 11.985 7.43408 11.5781C6.16455 11.1631 5.15951 10.7562 4.41895 10.3574C2.40072 9.26693 1.3916 7.79801 1.3916 5.95068C1.3916 4.9904 1.66016 4.1359 2.19727 3.38721C2.74251 2.63037 3.51969 2.04036 4.52881 1.61719C5.54606 1.19401 6.68538 0.982422 7.94678 0.982422C9.21631 0.982422 10.3475 1.21436 11.3403 1.67822C12.3332 2.13395 13.1022 2.78092 13.6475 3.61914C14.2008 4.45736 14.4775 5.40951 14.4775 6.47559H10.8154C10.8154 5.66178 10.5591 5.03109 10.0464 4.5835C9.53369 4.12777 8.81348 3.8999 7.88574 3.8999C6.99056 3.8999 6.29476 4.09115 5.79834 4.47363C5.30192 4.84798 5.05371 5.3444 5.05371 5.96289C5.05371 6.54069 5.34261 7.0249 5.92041 7.41553C6.50635 7.80615 7.36491 8.17236 8.49609 8.51416C10.5794 9.14079 12.0972 9.91797 13.0493 10.8457C14.0015 11.7734 14.4775 12.929 14.4775 14.3125C14.4775 15.8506 13.8957 17.0591 12.7319 17.938C11.5682 18.8088 10.0016 19.2441 8.03223 19.2441C6.66504 19.2441 5.41992 18.9959 4.29688 18.4995C3.17383 17.995 2.31527 17.3073 1.72119 16.4365C1.13525 15.5658 0.842285 14.5566 0.842285 13.4092H4.5166C4.5166 15.3704 5.68848 16.3511 8.03223 16.3511C8.90299 16.3511 9.58252 16.1761 10.0708 15.8262C10.5591 15.4681 10.8032 14.9717 10.8032 14.3369ZM31.543 10.5161C31.543 12.1763 31.2744 13.6208 30.7373 14.8496C30.2002 16.0703 29.4556 17.0509 28.5034 17.7915L31.4575 20.1108L29.126 22.1738L25.3418 19.1343C24.9105 19.2075 24.4629 19.2441 23.999 19.2441C22.526 19.2441 21.2118 18.8901 20.0562 18.1821C18.9006 17.4741 18.0054 16.465 17.3706 15.1548C16.7358 13.8364 16.4144 12.3228 16.4062 10.6138V9.73486C16.4062 7.98519 16.7196 6.4471 17.3462 5.12061C17.981 3.78597 18.8721 2.76465 20.0195 2.05664C21.1751 1.34049 22.4935 0.982422 23.9746 0.982422C25.4557 0.982422 26.77 1.34049 27.9175 2.05664C29.0731 2.76465 29.9642 3.78597 30.5908 5.12061C31.2256 6.4471 31.543 7.98112 31.543 9.72266V10.5161ZM27.832 9.71045C27.832 7.84684 27.4984 6.43083 26.8311 5.4624C26.1637 4.49398 25.2116 4.00977 23.9746 4.00977C22.7458 4.00977 21.7977 4.48991 21.1304 5.4502C20.4631 6.40234 20.1253 7.80208 20.1172 9.64941V10.5161C20.1172 12.3309 20.4508 13.7388 21.1182 14.7397C21.7855 15.7407 22.7458 16.2412 23.999 16.2412C25.2279 16.2412 26.1719 15.7611 26.8311 14.8008C27.4902 13.8324 27.8239 12.4245 27.832 10.5771V9.71045ZM47.0337 12.4937H44.1162V19H40.4541V1.22656H47.0581C49.1577 1.22656 50.7772 1.6945 51.9165 2.63037C53.0558 3.56624 53.6255 4.88867 53.6255 6.59766C53.6255 7.81022 53.361 8.8234 52.832 9.63721C52.3112 10.4429 51.5177 11.0858 50.4517 11.5659L54.2969 18.8291V19H50.3662L47.0337 12.4937ZM44.1162 9.52734H47.0703C47.9899 9.52734 48.702 9.29541 49.2065 8.83154C49.7111 8.35954 49.9634 7.71257 49.9634 6.89062C49.9634 6.05241 49.7233 5.39323 49.2432 4.91309C48.7712 4.43294 48.0428 4.19287 47.0581 4.19287H44.1162V9.52734ZM59.6313 8.55078H61.5112C62.4064 8.55078 63.0697 8.32699 63.501 7.87939C63.9323 7.4318 64.1479 6.83773 64.1479 6.09717C64.1479 5.38102 63.9323 4.82357 63.501 4.4248C63.0778 4.02604 62.4919 3.82666 61.7432 3.82666C61.0677 3.82666 60.5021 4.01383 60.0464 4.38818C59.5907 4.75439 59.3628 5.23454 59.3628 5.82861H55.835C55.835 4.90088 56.0832 4.0708 56.5796 3.33838C57.0841 2.59782 57.784 2.02002 58.6792 1.60498C59.5825 1.18994 60.5754 0.982422 61.6577 0.982422C63.5376 0.982422 65.0106 1.43408 66.0767 2.3374C67.1427 3.23258 67.6758 4.46956 67.6758 6.04834C67.6758 6.86214 67.4276 7.61084 66.9312 8.29443C66.4347 8.97803 65.7837 9.50293 64.978 9.86914C65.979 10.2272 66.7236 10.7643 67.2119 11.4805C67.7083 12.1966 67.9565 13.043 67.9565 14.0195C67.9565 15.5983 67.3787 16.8638 66.2231 17.8159C65.0757 18.7681 63.5539 19.2441 61.6577 19.2441C59.8836 19.2441 58.431 18.7762 57.2998 17.8403C56.1768 16.9045 55.6152 15.6675 55.6152 14.1294H59.1431C59.1431 14.7967 59.3913 15.342 59.8877 15.7651C60.3923 16.1883 61.0107 16.3999 61.7432 16.3999C62.5814 16.3999 63.2365 16.1802 63.7085 15.7407C64.1886 15.2931 64.4287 14.7031 64.4287 13.9707C64.4287 12.1966 63.4521 11.3096 61.499 11.3096H59.6313V8.55078Z" fill="black"/>
</svg>
